HIERARCHY
ROOT pelvis
{
	OFFSET 0.000000 0.000000 0.000000
	CHANNELS 6 Xposition Yposition Zposition Zrotation Xrotation Yrotation
	JOINT lfemur
	{
		OFFSET 11.446000 0.000000 0.000000
		CHANNELS 3 Zrotation Xrotation Yrotation
		JOINT ltibia
		{
			OFFSET 0.000000 -42.030400 0.000000
			CHANNELS 3 Zrotation Xrotation Yrotation
			JOINT lfoot
			{
				OFFSET 0.000000 -39.930200 0.000000
				CHANNELS 3 Zrotation Xrotation Yrotation
				JOINT ltoes
				{
					OFFSET 0.000000 0.000000 11.775800
					CHANNELS 3 Zrotation Xrotation Yrotation
					End Site
					{
					    OFFSET 0.000000 0.000000 5.000000
					}
				}
			}
		}
	}
	JOINT rfemur
	{
		OFFSET -11.446000 0.000000 0.000000
		CHANNELS 3 Zrotation Xrotation Yrotation
		JOINT rtibia
		{
			OFFSET 0.000000 -42.030400 0.000000
			CHANNELS 3 Zrotation Xrotation Yrotation
			JOINT rfoot
			{
				OFFSET 0.000000 -39.930200 0.000000
				CHANNELS 3 Zrotation Xrotation Yrotation
				JOINT rtoes
				{
					OFFSET 0.000000 0.000000 11.775800
					CHANNELS 3 Zrotation Xrotation Yrotation
					End Site
					{
					    OFFSET 0.000000 0.000000 5.000000
					}
				}
			}
		}
	}
	JOINT thorax
	{
		OFFSET 0.000000 11.255600 -5.000000
		CHANNELS 3 Zrotation Xrotation Yrotation
		JOINT head
		{
			OFFSET 0.000000 43.799300 0.000000
			CHANNELS 3 Zrotation Xrotation Yrotation
			End Site
			{
			    OFFSET 0.000000 5.000000 0.000000
			}
		}
		JOINT lclavicle
		{
			OFFSET 0.000000 39.863000 0.000000
			CHANNELS 3 Zrotation Xrotation Yrotation
			JOINT lhumerus
			{
				OFFSET 17.380600 4.958300 0.000000
				CHANNELS 3 Zrotation Xrotation Yrotation
				JOINT lradius
				{
					OFFSET 0.000000 -27.561300 0.000000
					CHANNELS 3 Zrotation Xrotation Yrotation
					JOINT lhand
					{
						OFFSET 0.000000 -26.933000 0.000000
						CHANNELS 3 Zrotation Xrotation Yrotation
						End Site
						{
						    OFFSET 0.000000 -5.000000 0.000000
						}
					}
				}
			}
		}
		JOINT rclavicle
		{
			OFFSET 0.000000 39.863000 0.000000
			CHANNELS 3 Zrotation Xrotation Yrotation
			JOINT rhumerus
			{
				OFFSET -17.380600 4.958300 0.000000
				CHANNELS 3 Zrotation Xrotation Yrotation
				JOINT rradius
				{
					OFFSET 0.000000 -27.561300 0.000000
					CHANNELS 3 Zrotation Xrotation Yrotation
					JOINT rhand
					{
						OFFSET 0.000000 -26.933000 0.000000
						CHANNELS 3 Zrotation Xrotation Yrotation
						End Site
						{
						    OFFSET 0.000000 -5.000000 0.000000
						}
					}
				}
			}
		}
	}
}
MOTION
Frames:	15
Frame Time:	0.0333333
62.046300 87.334100 9.266500 -3.563258 -2.741040 -90.358929 -5.439726 1.676235 -3.418981 -0.000000 15.276315 0.000000 0.000000 1.943494 7.603392 -0.000000 -1.424916 -0.000000 -3.535682 -0.621995 -1.734485 0.000000 18.700560 0.000000 0.000000 0.052270 0.928191 -0.000000 -29.544792 -0.000000 -6.019102 2.664104 0.154746 18.246886 25.473800 -0.817895 1.361528 0.000000 4.930004 90.507584 -4.530966 62.349176 0.000001 -12.201214 -58.880203 5.032707 -0.734503 -0.000000 -3.453928 -0.000000 -1.703110 -78.054267 6.871403 -66.114828 -0.000002 -21.694248 41.575047 -6.127464 -1.323371 -0.000000 
61.995000 87.364700 9.363300 -3.526974 -2.710523 -90.483663 -5.484707 1.804900 -3.406057 -0.000000 15.020013 0.000000 -0.000000 2.047841 7.700860 -0.000000 -1.427236 -0.000000 -3.613049 -0.549545 -1.850868 -0.000000 18.493812 0.000000 -0.000000 0.155514 1.181910 0.000000 -29.544823 0.000000 -5.826407 2.442154 0.296118 18.304072 25.703160 -1.077460 1.223172 -0.000000 5.051039 90.348315 -5.008654 61.786450 -0.000001 -12.329299 -58.707091 4.977066 -0.503211 0.000000 -3.466068 0.000000 -1.819120 -77.948538 6.729329 -65.725932 0.000001 -21.797137 41.315742 -6.324119 -1.256598 -0.000000 
61.953900 87.409900 9.456500 -3.390143 -2.621246 -90.603073 -5.472214 1.922792 -3.479752 0.000000 14.582573 -0.000000 0.000000 2.217929 7.886261 -0.000000 -1.424431 -0.000000 -3.583055 -0.417918 -1.759978 -0.000000 17.939506 -0.000000 0.000000 0.458554 1.212911 0.000000 -29.545352 -0.000000 -5.624395 2.190190 0.329433 18.434734 25.944257 -1.050301 1.098783 0.000000 5.322488 90.293314 -5.621986 61.771220 0.000000 -12.130529 -58.747847 4.814879 -0.601290 0.000000 -3.287140 0.000000 -1.957588 -78.009823 6.406849 -65.449990 -0.000001 -21.782020 41.467430 -6.497233 -1.198040 -0.000000 
61.965900 87.444800 9.566500 -3.249513 -2.656008 -90.724760 -5.582699 2.024790 -3.537418 0.000000 14.079658 -0.000000 -0.000000 2.448235 8.001671 -0.000000 -1.421265 0.000000 -3.705103 -0.450085 -1.738205 0.000000 17.652539 -0.000000 -0.000000 0.617319 1.335239 0.000000 -29.545205 0.000000 -5.650053 1.914873 0.382553 18.788593 26.083683 -1.146764 1.173038 -0.000000 5.375089 90.076082 -5.885911 62.197267 -0.000000 -11.887508 -59.682391 5.128887 -0.575127 -0.000000 -3.109817 -0.000000 -2.085960 -78.036298 5.994474 -65.648178 -0.000000 -21.660603 40.928817 -6.060057 -1.346489 -0.000000 
62.022100 87.456900 9.676600 -3.069410 -2.669341 -90.867559 -5.665673 2.043838 -3.451876 0.000000 13.620979 0.000000 0.000000 2.565892 8.049592 -0.000000 -1.421019 -0.000000 -3.767745 -0.701711 -1.459763 0.000000 17.658753 -0.000000 0.000000 0.718781 1.195026 0.000000 -29.544980 -0.000000 -5.626718 1.763080 0.437275 19.124439 25.971461 -1.301908 1.034152 0.000000 5.274689 90.117276 -5.736656 62.416502 -0.000001 -11.978194 -59.473904 5.299500 -0.383985 -0.000000 -3.100413 0.000000 -2.141179 -77.792137 5.775102 -65.847828 -0.000000 -21.577864 41.697899 -6.016569 -1.360990 -0.000000 
62.112500 87.452200 9.787700 -2.936924 -2.691808 -90.991781 -5.778277 2.037396 -3.572139 0.000000 13.275051 -0.000000 -0.000000 2.627057 8.249076 -0.000000 -1.419462 -0.000000 -3.880750 -0.978808 -1.487419 0.000000 17.762983 0.000000 -0.000000 0.713487 1.334518 -0.000000 -29.545888 -0.000000 -5.680107 1.681380 0.387486 19.466348 25.757854 -1.456900 1.113569 0.000000 5.121162 89.943738 -5.257259 62.415050 0.000000 -12.181875 -59.151818 5.376596 -0.548884 -0.000000 -2.947790 -0.000000 -1.992743 -77.766050 5.866990 -65.901496 0.000001 -21.639142 41.440787 -5.701128 -1.467287 -0.000000 
62.216200 87.447000 9.932700 -2.907926 -2.807281 -91.114886 -5.985841 2.081739 -3.558012 0.000000 13.013343 -0.000000 -0.000000 2.744210 8.268348 0.000000 -1.413986 -0.000000 -4.093646 -1.231621 -1.378293 -0.000000 17.993866 -0.000000 -0.000000 0.698898 1.337531 -0.000000 -29.546510 0.000000 -5.755893 1.741233 0.453578 19.569638 25.667840 -1.411828 1.119790 0.000000 5.291042 89.752037 -5.271653 61.981505 0.000000 -12.337106 -59.122162 5.399880 -0.314933 -0.000000 -2.994261 0.000000 -2.234965 -77.713817 5.570195 -65.971882 -0.000002 -21.433105 41.732931 -6.068315 -1.342459 -0.000000 
62.357800 87.431700 10.085500 -2.827445 -2.826614 -91.138735 -6.071937 1.920233 -3.267294 -0.000000 12.967305 0.000000 0.000000 2.758849 8.015227 -0.000000 -1.415135 -0.000000 -4.204665 -1.500665 -1.342366 -0.000000 18.190348 -0.000000 0.000000 0.663254 1.265229 -0.000000 -29.546049 -0.000000 -5.689743 1.763500 0.535703 19.578762 25.528617 -1.478110 1.104341 0.000000 5.156536 89.567251 -5.188105 62.526990 0.000000 -12.172349 -59.910194 5.437411 -0.440954 0.000000 -3.092337 0.000000 -2.360586 -77.693889 5.579940 -65.935790 -0.000000 -21.343152 41.604124 -6.306094 -1.261748 0.000000 
62.543700 87.402700 10.307100 -2.719938 -2.981485 -91.112514 -6.368020 1.645543 -3.311510 0.000000 13.034703 0.000000 -0.000000 2.830126 7.959589 -0.000000 -1.411532 -0.000000 -4.496768 -1.998863 -1.297268 -0.000000 18.725744 -0.000000 0.000000 0.459885 1.223138 0.000000 -29.546380 -0.000000 -5.711630 1.837378 0.587894 19.436323 25.399139 -1.374677 0.798080 0.000000 5.166623 89.609725 -5.309361 62.819440 -0.000000 -11.995364 -59.833666 5.818337 -0.545448 -0.000000 -3.115040 0.000000 -2.282221 -77.835826 5.998729 -65.771270 0.000000 -21.376784 41.493545 -5.722636 -1.461166 0.000000 
62.685900 87.349400 10.504300 -2.647837 -3.202940 -91.023129 -6.683614 1.446796 -3.454078 -0.000000 13.103528 -0.000000 0.000000 2.806601 7.915875 0.000000 -1.403092 -0.000000 -4.869837 -2.539552 -1.496723 -0.000000 19.526359 0.000000 0.000000 0.071768 1.394870 -0.000000 -29.546035 -0.000000 -5.866098 2.006886 0.396666 19.149796 25.301888 -0.942819 0.568533 0.000000 5.407057 89.634787 -5.487925 63.049276 -0.000001 -11.770697 -59.804909 5.898306 -0.306317 0.000000 -3.031743 -0.000000 -2.186285 -77.951750 6.139278 -65.542203 -0.000000 -21.534530 41.430007 -5.820247 -1.428928 -0.000000 
62.843900 87.272400 10.638300 -2.636363 -3.277612 -90.965632 -6.821391 1.265176 -3.452951 -0.000000 13.222420 -0.000000 -0.000000 2.657511 7.713123 -0.000000 -1.406544 -0.000000 -5.023143 -3.074487 -1.601936 0.000000 20.369239 -0.000000 0.000000 -0.242903 1.279918 -0.000000 -29.545912 -0.000000 -5.949759 2.153650 0.244096 19.052843 25.230892 -0.875366 0.438543 -0.000000 5.093594 89.461827 -4.803020 62.661514 -0.000001 -12.017838 -59.648888 5.650876 -0.337603 0.000000 -3.053111 -0.000000 -1.995623 -77.842561 6.335437 -65.554694 0.000001 -21.713144 41.822483 -6.067741 -1.344554 -0.000000 
62.975300 87.257300 10.756300 -2.756025 -3.291530 -90.920504 -6.894328 1.303511 -3.444819 -0.000000 13.208681 -0.000000 0.000000 2.683877 7.614076 -0.000000 -1.401760 0.000000 -5.110641 -3.114743 -1.615876 0.000000 20.535692 -0.000000 0.000000 -0.244222 1.258682 -0.000000 -29.545782 -0.000000 -5.983071 2.277936 0.413162 19.056883 25.113215 -1.054581 0.431078 0.000000 5.349879 89.201940 -5.339158 62.844552 0.000001 -11.932737 -59.683970 6.106172 -0.103910 -0.000000 -2.831833 -0.000000 -2.551168 -78.121227 6.070152 -64.831760 -0.000001 -21.730834 41.546183 -6.525707 -1.189318 0.000000 
63.066400 87.296200 10.818700 -2.745056 -3.195105 -90.743757 -6.836138 1.330918 -3.602743 -0.000000 12.999731 -0.000000 0.000000 2.853319 7.618970 0.000000 -1.401214 -0.000000 -5.031737 -2.907425 -1.653625 0.000000 20.042617 -0.000000 -0.000000 0.013110 1.134252 -0.000000 -29.545844 -0.000000 -5.926297 2.555396 -0.000189 18.757427 25.321119 -0.474997 0.262670 0.000000 5.433152 89.001587 -5.153875 62.472412 0.000000 -11.935134 -59.446525 6.670769 -0.151125 -0.000000 -2.674955 -0.000000 -2.234858 -78.050746 6.015412 -65.119042 0.000000 -21.838858 41.215054 -6.447795 -1.215107 -0.000000 
63.190600 87.355900 10.876900 -2.595849 -3.061439 -90.606165 -6.719850 1.172959 -3.504429 0.000000 12.808341 -0.000000 0.000000 3.004997 7.489530 -0.000000 -1.400688 -0.000000 -4.929909 -2.808232 -1.732964 -0.000000 19.415764 -0.000000 0.000000 0.440884 1.123944 -0.000000 -29.545929 0.000000 -5.809446 2.422250 0.053307 18.663488 25.465432 -0.428321 0.199491 0.000000 5.132258 88.576826 -5.154799 62.732341 0.000001 -11.781150 -59.547483 6.878889 -0.318967 -0.000000 -2.307214 0.000000 -2.222513 -78.173407 6.224453 -64.835537 -0.000001 -21.940844 40.615056 -6.482020 -1.204011 -0.000000 
63.304900 87.425300 10.895100 -2.513943 -2.824084 -90.467021 -6.496006 1.105694 -3.588304 0.000000 12.595128 -0.000000 0.000000 3.195272 7.435088 -0.000000 -1.396294 -0.000000 -4.658508 -2.459641 -1.654072 0.000000 18.448570 -0.000000 0.000000 0.993177 0.962339 0.000000 -29.545775 -0.000000 -5.605696 2.446927 -0.045918 18.632290 25.395424 -0.556762 0.242484 -0.000000 4.664712 87.829183 -4.833036 63.385963 0.000000 -11.342128 -60.652280 8.193954 -0.378896 0.000000 -1.795681 0.000000 -2.091386 -78.162750 6.410518 -64.666854 0.000000 -22.124543 40.690164 -6.515382 -1.193739 0.000000 
